<svg xmlns="http://www.w3.org/2000/svg" viewBox="0 0 720 393"><defs><style>.cls-1{fill:#ed6c03;}</style></defs><title>Ativo 1aa</title><g id="Camada_2" data-name="Camada 2"><g id="Camada_1-2" data-name="Camada 1"><path class="cls-1" d="M0,82q104.19,0,208.39-.09,117.69-.1,235.37-.31H470V0h1c15.64,6,31.25,12.1,46.94,18Q616.71,55,715.51,92c1.09.41,2.16.85,4.37,1.72L470.11,188V106.6h-6.7L7,107.12c-2.33,0-4.66-.08-7-.12Z"/><path class="cls-1" d="M720,311c-13.82.1-27.65.28-41.47.3q-211.47.36-422.95.67H250v81h-1c-14.72-5.63-29.41-11.37-44.18-16.88Q105.28,339,5.68,302c-1.5-.56-3-1.25-5.33-2.26L249.94,206v81h6.13q162.75-.17,325.49-.33,67-.07,134-.37c1.49,0,3-.2,4.46-.3Z"/></g></g></svg>