<svg id="Camada_1" data-name="Camada 1" xmlns="http://www.w3.org/2000/svg" viewBox="0 0 161 158"><defs><style>.cls-1{fill:#fff;}</style></defs><title>iconeTermometro</title><path class="cls-1" d="M-147,254h9a32.89,32.89,0,0,0,4.33,1c32.55,2.93,60.79,26.94,68.66,58.51,1.19,4.8,2,9.69,3,14.53v10a23,23,0,0,0-.94,3.31c-4.37,32.35-22.19,54.06-52.45,65.58-6.27,2.39-13.06,3.44-19.61,5.11h-15a15.29,15.29,0,0,0-2.75-1c-32.67-5.09-54.85-23.08-66-54.2-2.16-6-2.86-12.54-4.23-18.83V328a21.74,21.74,0,0,0,1-3.27c4.37-32.55,22.28-54.36,52.85-65.65C-162.13,256.47-154.42,255.64-147,254Zm16,55.57V293.46s4.51-1.14,6.75-1.66l-.29-1.61-7.28-1.07c0-6,0-11.63,0-17.29,0-7.37-4.43-12.62-10.56-12.67s-10.74,5.08-10.78,12.46q-.2,43.23-.1,86.44c0,4.4-.91,7.56-4.38,10.76-8.61,7.92-8.38,21.63-.17,30a21.25,21.25,0,0,0,30.43.27c8.35-8.21,9.07-22.28.3-29.95-5.47-4.78-4.81-9.79-4.45-15.7l7-.86v-1.47c-2.28-.33-6.5-1-6.5-1v-16.7s4.26-.6,6.55-.89l.08-1.58c-2.34-.48-6.63-1.44-6.63-1.44v-16s4.44-1,6.63-1.39l-.09-1.63C-126.75,310.17-131,309.57-131,309.57Z" transform="translate(223 -254)"/><path class="cls-1" d="M-149.28,318q0-21.74,0-43.46c0-1.83-.5-4.1.38-5.39,1.52-2.25,3.67-4.92,6-5.53,3.3-.85,6,1.52,6.82,5.08a28.15,28.15,0,0,1,.41,6c.06,29.3.14,58.61.09,87.92,0,3.25.81,5.36,3.61,7.45a17.34,17.34,0,0,1,2.08,26,17.53,17.53,0,0,1-25.41-.15,17.22,17.22,0,0,1,2.29-25.9c2.85-2.1,3.61-4.25,3.59-7.48-.11-14.82,0-29.64,0-44.46Zm7.12,81.1A15.52,15.52,0,0,0-127.76,388a15,15,0,0,0-6.81-17.21c-2.7-1.56-3.58-3.22-3.55-6.24.12-11.81-.14-23.62-.06-35.44,0-3.23-.66-4.75-4.35-4.8-3.94-.06-4.23,1.89-4.22,4.92.06,11.64-.12,23.29,0,34.94,0,3.16-.81,5-3.71,6.68a14.91,14.91,0,0,0-6.72,17.27A15.5,15.5,0,0,0-142.16,399.1Z" transform="translate(223 -254)"/></svg>