<svg id="Camada_1" data-name="Camada 1" xmlns="http://www.w3.org/2000/svg" viewBox="0 0 160.53 158"><defs><style>.cls-1{fill:#fff;}</style></defs><title>iconeVelocidade</title><path class="cls-1" d="M-131,254h9a32.89,32.89,0,0,0,4.33,1c32.54,2.92,60.79,26.94,68.66,58.51,1.19,4.8,2,9.69,3,14.53v10a23,23,0,0,0-.94,3.31c-4.42,32.57-22.4,54.3-52.92,65.74-6.14,2.3-12.75,3.33-19.14,4.95h-15a13.28,13.28,0,0,0-2.75-1c-40.85-4.66-74.54-42.27-69.23-86.16,3.9-32.27,21.85-53.91,51.8-65.53C-146.86,256.5-138.75,255.72-131,254Zm50.55,101.65,17.16,9.49C-58.76,355.69-56,337-56,337H-72.67c-1.6-4.64,0-6,4-5.76,4.26.23,8.54.05,13.2.05.06-11.3-3-21-8.06-30.56L-79.82,310l-2.81-5.05,17.1-10-22.35-21.85-9.83,16.38-4.85-2.94,8.65-15.45A66.42,66.42,0,0,0-124,263.51V281h-6V263.2s-20.95,3.2-30.1,8.41l8.78,15.28-5,2.77-9.15-15.14c-8.67,5.85-15.8,12.53-21.21,21.63l15.46,9-3.09,4.77-15.6-8.63c-4.4,9.46-7.56,18.51-7.18,29,4.78,0,9.09.2,13.37,0,4.51-.28,5.06,1.75,3.75,5.71h-16.75c-1,8.46,2.4,21.28,7.43,28.91l15.3-8.36,3,4.73-15.57,9.18c14.56,20.89,34.09,32.06,59.1,32.4,25.84.36,46-10.89,61.21-32.38l-16.91-9.93Z" transform="translate(206.53 -254)"/><path class="cls-1" d="M-76.87,348.26c-13.76-.88-27.53-1.83-41.3-2.58a12.54,12.54,0,0,0-6,1.24c-3.23,1.59-6.23,1.38-7.77-1.66a7.85,7.85,0,0,1,.39-6.69c1.88-2.86,4.76-2.44,7.91-.81A38.33,38.33,0,0,0-113,341.15c12.06,2.21,24.18,4.12,36.28,6.15Z" transform="translate(206.53 -254)"/></svg>