<svg xmlns="http://www.w3.org/2000/svg" viewBox="0 0 179 166.74"><defs><style>.cls-1{fill:none;stroke-width:7px;}.cls-1,.cls-2{stroke:#fff;stroke-miterlimit:10;}.cls-2{fill:#fff;}</style></defs><title>Ativo 2aa</title><g id="Camada_2" data-name="Camada 2"><g id="Camada_1-2" data-name="Camada 1"><ellipse class="cls-1" cx="89.5" cy="83.37" rx="86" ry="79.87" transform="translate(-0.69 0.75) rotate(-0.48)"/><path class="cls-2" d="M88.5,6.43h2.06c.79,1.12,2,1,3.14.91l2.08-.11,3,0,2,0c34.42,4.3,67.45,30.46,71.92,66.79V76l0,2-.06,2c-.12,1.13-.26,2.26.93,3v2a1.85,1.85,0,0,0-.93,2c0,.66,0,1.33.08,2v4.82a79.89,79.89,0,0,1-3.26,13.77c-5.13,15.63-15.21,27.75-28.88,37.34-2.2,1.54-4.32,3.22-6.66,4.54-27.11,15.31-55.24,16.06-83,2.91C18.6,137,1.72,104.08,7.88,70.93,14.22,36.86,41.49,12.2,79.24,7.25h4.08l2,0C86.53,7.41,87.7,7.52,88.5,6.43ZM79.09,115.27C65.57,124.4,65.56,139,74,147.89a22.3,22.3,0,0,0,31.47.59c10-9.6,8.32-22.56-4.4-33.4V104.16c2.28-1.75,5.56.63,7.46-2-2.4-1.76-5.35.2-7.39-1.47V84.24c2.5-1.19,5.36.53,7.46-1.61-2-2.85-5.42-.23-7.54-2.11V64.72c2.19-1.85,5.94,1,7.44-2.71-2.49-1.16-5,0-7.36-1V45c2.4-1.65,5.83.76,7.52-2.48-2.42-1.84-5.28,0-7.82-1.64V36.17c0-4.73.1-9.47-.07-14.2A10.94,10.94,0,0,0,91,11.71c-4.61-.49-9.64,2.92-11.32,7.57a12.35,12.35,0,0,0-.42,4.35q-.09,43.1-.14,86.18Z"/><path class="cls-2" d="M86.24,5.51c-.82,1.1-2,1-3.19.87a5.1,5.1,0,0,0,.07-.87Z"/><path class="cls-2" d="M91.5,6.43c-1.19.08-2.39.21-3.19-.92h3.11A4.09,4.09,0,0,0,91.5,6.43Z"/><path class="cls-2" d="M96.67,6.36l-3.08,0q-.06-.41-.09-.81h3.11A3,3,0,0,0,96.67,6.36Z"/><path class="cls-2" d="M76.86,6.34a7.81,7.81,0,0,0,0-.83H79a7.86,7.86,0,0,1,0,.83Z"/><path class="cls-2" d="M81,6.34c0-.28.05-.55.06-.83h2.07a5.1,5.1,0,0,1-.07.87Z"/><path class="cls-2" d="M93.5,5.51q0,.41.09.81l-2.09.11a4.09,4.09,0,0,1-.08-.92Z"/><path class="cls-2" d="M96.67,6.36a3,3,0,0,1-.06-.85h2.07a7.81,7.81,0,0,0,0,.83Z"/><path class="cls-2" d="M97.68,117.37c9.75,7,12.78,13.92,9.85,22.12-2.7,7.54-8.77,11.91-17.18,12s-14.55-4.21-17.41-11.67c-3.17-8.31-.23-15.08,9.47-22.31.62-1.73.31-3.55.32-5.35q.09-42.73.15-85.48a38,38,0,0,1,.36-6.4A7,7,0,0,1,90,14.53a7.34,7.34,0,0,1,7,4.93c.73,1.92.57,3.9.57,5.87q0,43.23.08,86.47Zm-3.4,1.42v-43c-3-.36-5.49-.76-8.32.35v42.73c-9.91,5.74-13.13,11.69-10.78,19.46C77,144.44,83.53,149,90.41,148.91s13.2-4.75,14.93-10.95C107.46,130.32,104.15,124.31,94.28,118.79Z"/></g></g></svg>