<svg id="Camada_1" data-name="Camada 1" xmlns="http://www.w3.org/2000/svg" viewBox="0 0 120.63 118.51"><defs><style>.cls-1{fill:#fff;}</style></defs><title>iconeDistancia</title><path class="cls-1" d="M-14.64,359v3.84a6.12,6.12,0,0,0-.26,2,34.32,34.32,0,0,1-.57,5.36,57.65,57.65,0,0,1-14.3,29.83A59.31,59.31,0,0,1-66.2,419.52c-1.93.29-3.87.48-5.8.72h-6a44,44,0,0,0-4.86-.53,61.76,61.76,0,0,1-27.58-10.84,58.69,58.69,0,0,1-21.5-67.32A60.28,60.28,0,0,1-65.36,302.5,59.05,59.05,0,0,1-27.6,324.42a57.21,57.21,0,0,1,12.26,28.22C-15,354.77-15.08,356.93-14.64,359Zm-37.67,3.26c0-14.08,0-28.16,0-42.23a8.37,8.37,0,0,0-1.38-5.19c-1.83-2.54-4.15-4.34-7.41-4.36-9.08,0-18.16,0-27.23,0a8.74,8.74,0,0,0-2.92.5,10,10,0,0,0-6.28,8.72c.11,28.27.07,56.54,0,84.82A8.45,8.45,0,0,0-96,409.81c1.84,2.48,4.14,4.24,7.36,4.26,9.08,0,18.15,0,27.23,0a8.49,8.49,0,0,0,2.92-.49c3.12-1.07,6.32-4.84,6.27-8.71C-52.41,390.69-52.31,376.49-52.31,362.3Z" transform="translate(135.27 -301.73)"/><path class="cls-1" d="M-55.56,362.3q0,20.58,0,41.16c0,2.9-1,5.32-3.79,6.62a5.53,5.53,0,0,1-2.3.53h-26.4a6.18,6.18,0,0,1-5.77-4.39c-.39-1.43-.27-1.58,1.17-1.59,1,0,1.92,0,2.88,0,1.35-.05,2.18-.8,2.18-1.88s-.84-1.83-2.2-1.88q-1.74-.06-3.48,0c-.68,0-.92-.25-.91-.91,0-1.36,0-2.72,0-4.08,0-.79.27-1,1-1,3.19,0,6.39,0,9.59,0,1.46,0,2.41-.75,2.39-1.88a2.17,2.17,0,0,0-2.4-1.83c-3.08,0-6.16-.06-9.24,0-1.12,0-1.48-.31-1.4-1.41s0-2.48,0-3.72c0-.67.25-.92.92-.9,1.2,0,2.4,0,3.6,0a1.92,1.92,0,0,0,2.07-1.86,1.89,1.89,0,0,0-2.09-1.66c-1.2,0-2.4,0-3.6,0-.68,0-.91-.24-.9-.9,0-1.44,0-2.88,0-4.32,0-.79.26-1,1-1,3.24,0,6.48,0,9.72,0,1.46,0,2.38-.71,2.33-1.8s-.89-1.68-2.32-1.68c-3.2,0-6.4,0-9.6,0-.88,0-1.22-.24-1.18-1.15q.09-2,0-4.08c0-.85.3-1.12,1.12-1.08,1.16,0,2.32,0,3.48,0a1.86,1.86,0,0,0,2-1.61,1.89,1.89,0,0,0-1.94-1.86q-1.86-.06-3.72,0c-.66,0-.94-.2-.93-.88,0-1.4,0-2.8,0-4.2,0-.78.34-.92,1-.92,3.15,0,6.31,0,9.47,0,1.59,0,2.62-.89,2.48-2.07a1.87,1.87,0,0,0-2-1.7c-3.24,0-6.48,0-9.72,0-1,0-1.25-.32-1.21-1.24a33.07,33.07,0,0,0,0-3.59c-.06-1,.32-1.26,1.25-1.2s2.08,0,3.12,0c1.42,0,2.29-.81,2.23-1.94s-.91-1.76-2.28-1.77c-1.08,0-2.16-.05-3.23,0-.87.05-1.11-.31-1.08-1.12,0-1.27,0-2.56,0-3.83,0-.87.32-1.08,1.13-1.08,3.16,0,6.32,0,9.48,0a2.32,2.32,0,0,0,1.48-.35,1.7,1.7,0,0,0,.8-2.05,2,2,0,0,0-2-1.38c-3.2,0-6.4,0-9.6,0-1,0-1.35-.26-1.28-1.27.08-1.27,0-2.56,0-3.84,0-.66.23-.93.91-.9,1.2,0,2.4,0,3.6,0a1.93,1.93,0,0,0,2.08-1.85c0-1-.72-1.61-2.07-1.62h-3.6c-.39,0-.86.05-.88-.54-.09-2.61-.1-5.2,2-7.21A5.82,5.82,0,0,1-88,314q13.14,0,26.28,0a6.15,6.15,0,0,1,6,5.27,24.11,24.11,0,0,1,.21,3.69Q-55.54,342.63-55.56,362.3Z" transform="translate(135.27 -301.73)"/></svg>